<svg width="28" height="56" viewBox="0 0 28 56" fill="none" xmlns="http://www.w3.org/2000/svg">
<path d="M8.98242 37.1973H8.89453L4.79883 44H0.685547L6.78516 34.7715L0.773438 25.5078H5.02734L9.07031 32.2051H9.14062L13.1309 25.5078H17.3145L11.25 34.6484L17.2441 44H13.0605L8.98242 37.1973Z" fill="white"/>
<path d="M21.4844 25.8984V24.5234H22.8438C23.4479 24.5234 23.9401 24.3516 24.3203 24.0078C24.7057 23.6641 24.8984 23.2266 24.8984 22.6953C24.8984 22.1589 24.7188 21.7344 24.3594 21.4219C24.0052 21.1094 23.5 20.9531 22.8438 20.9531C22.2344 20.9531 21.7396 21.1172 21.3594 21.4453C20.9792 21.7682 20.763 22.2083 20.7109 22.7656H19.0625C19.1302 21.776 19.5104 20.987 20.2031 20.3984C20.901 19.8099 21.8073 19.5156 22.9219 19.5156C23.9948 19.5156 24.8776 19.7917 25.5703 20.3438C26.263 20.8906 26.6094 21.5964 26.6094 22.4609C26.6094 23.1589 26.3984 23.7474 25.9766 24.2266C25.5547 24.7005 24.9922 25 24.2891 25.125V25.1562C25.1432 25.2135 25.8203 25.487 26.3203 25.9766C26.8255 26.4661 27.0781 27.1042 27.0781 27.8906C27.0781 28.8646 26.6849 29.6615 25.8984 30.2812C25.112 30.901 24.125 31.2109 22.9375 31.2109C21.7344 31.2109 20.763 30.9115 20.0234 30.3125C19.2891 29.7083 18.8932 28.9141 18.8359 27.9297H20.5156C20.5729 28.4766 20.8151 28.9167 21.2422 29.25C21.6745 29.5833 22.2396 29.75 22.9375 29.75C23.625 29.75 24.1901 29.5755 24.6328 29.2266C25.0755 28.8724 25.2969 28.4193 25.2969 27.8672C25.2969 27.2578 25.0807 26.7786 24.6484 26.4297C24.2214 26.0755 23.6354 25.8984 22.8906 25.8984H21.4844Z" fill="white"/>
</svg>
