<svg width="22" height="22" viewBox="0 0 22 22" fill="none" xmlns="http://www.w3.org/2000/svg">
<path d="M14.5967 19.6207C15.018 20.2865 14.5396 21.1554 13.7516 21.1554H11.3733C11.0636 21.1554 10.8123 21.0804 10.6205 20.9302C10.428 20.78 10.2754 20.6023 10.1626 20.3953L7.80114 16.3358C7.70956 16.1783 7.4665 16.2049 7.38959 16.37C7.32394 16.5109 7.25347 16.6423 7.17853 16.7639L5.03903 20.3957C4.90737 20.5834 4.75269 20.7573 4.57428 20.9168C4.39587 21.0763 4.16625 21.1557 3.88472 21.1557H1.84159C1.04838 21.1557 0.570915 20.2764 1.00288 19.6111L4.54017 14.1632C4.7576 13.8283 4.75499 13.3962 4.53354 13.064L1.23359 8.11334C0.790615 7.44878 1.26701 6.55869 2.06568 6.55869H4.39175C4.70147 6.55869 4.92903 6.59891 5.07409 6.67866C5.21915 6.75841 5.34875 6.89213 5.4615 7.07982L7.78503 10.9355C7.89547 11.1188 8.1789 11.0912 8.27681 10.9009C8.36137 10.7373 8.45487 10.5703 8.558 10.4011L10.4163 7.1496C10.5476 6.94335 10.6858 6.79313 10.8316 6.69929C10.977 6.60544 11.1578 6.55835 11.3737 6.55835H13.4727C14.2773 6.55835 14.7525 7.46036 14.2973 8.12396L11.042 12.8703C10.8159 13.2 10.8079 13.6328 11.0217 13.9706L14.5967 19.6207Z" fill="white"/>
<path d="M17.0459 18.9457C17.0459 18.6075 17.1098 18.2936 17.2363 18.0021C17.3625 17.7113 17.5357 17.4583 17.7575 17.2424C17.9775 17.0269 18.2377 16.855 18.5381 16.7285C18.8386 16.602 19.1665 16.5388 19.5236 16.5388C19.8701 16.5388 20.1946 16.602 20.4947 16.7285C20.7952 16.855 21.0578 17.0269 21.2833 17.2424C21.5085 17.4583 21.6845 17.7113 21.811 18.0021C21.9371 18.2936 22.0004 18.6075 22.0004 18.9457C22.0004 19.2829 21.9371 19.5999 21.8106 19.8955C21.6841 20.1911 21.5081 20.4469 21.283 20.6624C21.0575 20.8783 20.7948 21.0474 20.4944 21.1691C20.1943 21.2911 19.8698 21.3527 19.5233 21.3527C19.1661 21.3527 18.8382 21.2911 18.5378 21.1691C18.2377 21.0474 17.9771 20.8783 17.7571 20.6624C17.5354 20.4465 17.3625 20.1911 17.236 19.8955C17.1095 19.6002 17.0459 19.2833 17.0459 18.9457ZM21.6061 0.647217V8.69818C21.6061 9.56203 21.5552 10.4176 21.4521 11.2674C21.3483 12.1168 21.2132 12.9823 21.0437 13.8641H18.0868C17.9187 12.9823 17.7822 12.1168 17.6791 11.2674C17.5753 10.418 17.5247 9.56237 17.5247 8.69818V0.647217H21.6061Z" fill="white"/>
</svg>
