<svg width="22" height="22" viewBox="0 0 22 22" fill="none" xmlns="http://www.w3.org/2000/svg">
<g clip-path="url(#clip0_1008_17595)">
<path d="M16.1667 2.78016L10.9567 8.17521L5.56167 2.96527C4.96606 2.39009 4.01585 2.40668 3.44068 3.0023L2.74606 3.72159C2.17088 4.31721 2.18747 5.26741 2.78308 5.84259L8.17813 11.0525L2.96819 16.4476C2.39301 17.0432 2.4096 17.9934 3.00522 18.5686L3.72451 19.2632C4.32013 19.8384 5.27033 19.8218 5.84551 19.2262L11.0554 13.8311L16.4505 19.0411C17.0461 19.6162 17.9963 19.5996 18.5715 19.004L19.2661 18.2847C19.8413 17.6891 19.8247 16.7389 19.2291 16.1637L13.834 10.9538L19.044 5.55875C19.6192 4.96314 19.6026 4.01294 19.0069 3.43776L18.2877 2.74314C17.692 2.16796 16.7418 2.18455 16.1667 2.78016Z" fill="white"/>
</g>
<defs>
<clipPath id="clip0_1008_17595">
<rect width="22" height="22" fill="white"/>
</clipPath>
</defs>
</svg>
