<svg width="30" height="30" viewBox="0 0 30 30" fill="none" xmlns="http://www.w3.org/2000/svg">
<g clip-path="url(#clip0_1008_17638)">
<path d="M1.52557 15.6359H2.76665L8.92131 24.3942C9.21019 24.8052 9.67877 25.0423 10.1695 25.0423C10.2661 25.0423 10.3642 25.0329 10.4613 25.0137C11.0522 24.8982 11.5199 24.4468 11.6556 23.8601L15.3227 8.00866H28.4744C29.3168 8.00866 30.0002 7.32592 30.0002 6.48309C30.0002 5.64068 29.3173 4.95752 28.4744 4.95752H14.11C13.4001 4.95752 12.7838 5.44781 12.6237 6.13932L9.45335 19.8442L4.80735 13.233C4.52202 12.8271 4.05636 12.5849 3.55938 12.5849H1.52557C0.682947 12.5849 0 13.2677 0 14.1105C0.000208725 14.9529 0.683156 15.6359 1.52557 15.6359Z" fill="white"/>
<path d="M17.0586 22.1203C17.0586 22.8694 17.6693 23.4205 18.4568 23.4205C18.9889 23.4205 19.4026 23.0857 19.757 22.6521L21.8845 19.855L24.0118 22.6521C24.4059 23.1447 24.8192 23.4205 25.4099 23.4205C26.1592 23.4205 26.7889 22.8886 26.7889 22.0418C26.7889 21.648 26.6311 21.2933 26.2961 20.8989L23.6566 17.8657L26.2179 14.8711C26.4545 14.5755 26.6311 14.2604 26.6311 13.8465C26.6311 13.0973 26.0204 12.5459 25.2325 12.5459C24.7004 12.5459 24.2871 12.8809 23.9323 13.3148L21.9425 15.9145L19.9926 13.3148C19.5981 12.822 19.1851 12.5459 18.5944 12.5459C17.8455 12.5459 17.2156 13.0784 17.2156 13.9254C17.2156 14.3188 17.3734 14.6738 17.7077 15.0673L20.1701 17.9043L17.4712 21.0955C17.2162 21.3912 17.0586 21.7064 17.0586 22.1203Z" fill="white"/>
</g>
<defs>
<clipPath id="clip0_1008_17638">
<rect width="30" height="30" fill="white"/>
</clipPath>
</defs>
</svg>
