<svg width="28" height="28" viewBox="0 0 28 28" fill="none" xmlns="http://www.w3.org/2000/svg">
<path d="M24.6392 10.84C25.0592 10.42 26.5992 9.3 26.5992 7.2C26.5992 4.82 24.7792 3 22.3992 3C20.0192 3 18.1992 4.82 18.1992 7.2H20.9992C20.9992 6.36 21.5592 5.8 22.3992 5.8C23.2392 5.8 23.7992 6.36 23.7992 7.2C23.7992 7.48 23.6592 7.9 22.8192 8.6C18.8992 11.68 18.1992 13.5 18.1992 14.2V15.6H26.5992V12.8H22.2592C22.8192 12.24 23.5192 11.68 24.6392 10.84Z" fill="white"/>
<path d="M16.5967 23.0623C17.018 23.7281 16.5396 24.597 15.7516 24.597H13.3733C13.0636 24.597 12.8123 24.5221 12.6205 24.3719C12.428 24.2216 12.2754 24.0439 12.1626 23.837L9.80114 19.7774C9.70956 19.62 9.4665 19.6466 9.38959 19.8117C9.32394 19.9526 9.25347 20.0839 9.17853 20.2056L7.03903 23.8373C6.90737 24.025 6.75269 24.1989 6.57428 24.3584C6.39587 24.5179 6.16625 24.5974 5.88472 24.5974H3.84159C3.04838 24.5974 2.57092 23.7181 3.00288 23.0528L6.54017 17.6049C6.7576 17.27 6.75499 16.8379 6.53354 16.5056L3.23359 11.555C2.79061 10.8904 3.26701 10.0003 4.06568 10.0003H6.39175C6.70147 10.0003 6.92903 10.0406 7.07409 10.1203C7.21915 10.2001 7.34875 10.3338 7.4615 10.5215L9.78503 14.3772C9.89547 14.5604 10.1789 14.5328 10.2768 14.3426C10.3614 14.179 10.4549 14.0119 10.558 13.8428L12.4163 10.5913C12.5476 10.385 12.6858 10.2348 12.8316 10.1409C12.977 10.0471 13.1578 10 13.3737 10H15.4727C16.2773 10 16.7525 10.902 16.2973 11.5656L13.042 16.312C12.8159 16.6417 12.8079 17.0744 13.0217 17.4123L16.5967 23.0623Z" fill="white"/>
</svg>
