<svg width="40" height="31" viewBox="0 0 40 31" fill="none" xmlns="http://www.w3.org/2000/svg">
<path d="M4.83317 12.9668C3.89437 11.9544 2.31258 11.8947 1.30015 12.8335C0.287719 13.7723 0.228029 15.3541 1.16683 16.3665L4.83317 12.9668ZM15.3636 28L13.5305 29.6998C14.0137 30.221 14.6959 30.5118 15.4065 30.4996C16.1171 30.4875 16.7889 30.1734 17.254 29.636L15.3636 28ZM38.8904 4.63602C39.7939 3.592 39.68 2.01319 38.636 1.10964C37.592 0.206096 36.0132 0.319968 35.1096 1.36398L38.8904 4.63602ZM1.16683 16.3665L13.5305 29.6998L17.1968 26.3002L4.83317 12.9668L1.16683 16.3665ZM17.254 29.636L38.8904 4.63602L35.1096 1.36398L13.4733 26.364L17.254 29.636Z" fill="#04B155"/>
</svg>
