<svg width="28" height="28" viewBox="0 0 28 28" fill="none" xmlns="http://www.w3.org/2000/svg">
<path d="M26.7678 4.76777C27.7441 3.79146 27.7441 2.20854 26.7678 1.23223C25.7915 0.255922 24.2085 0.255922 23.2322 1.23223L26.7678 4.76777ZM1.23223 23.2322C0.255922 24.2085 0.255922 25.7915 1.23223 26.7678C2.20854 27.7441 3.79146 27.7441 4.76777 26.7678L1.23223 23.2322ZM23.2322 26.7678C24.2085 27.7441 25.7915 27.7441 26.7678 26.7678C27.7441 25.7915 27.7441 24.2085 26.7678 23.2322L23.2322 26.7678ZM4.76777 1.23223C3.79146 0.255922 2.20854 0.255922 1.23223 1.23223C0.255922 2.20854 0.255922 3.79146 1.23223 4.76777L4.76777 1.23223ZM23.2322 1.23223L12.2322 12.2322L15.7678 15.7678L26.7678 4.76777L23.2322 1.23223ZM12.2322 12.2322L1.23223 23.2322L4.76777 26.7678L15.7678 15.7678L12.2322 12.2322ZM26.7678 23.2322L15.7678 12.2322L12.2322 15.7678L23.2322 26.7678L26.7678 23.2322ZM15.7678 12.2322L4.76777 1.23223L1.23223 4.76777L12.2322 15.7678L15.7678 12.2322Z" fill="#DD3333"/>
</svg>
