<svg width="24" height="24" viewBox="0 0 24 24" fill="none" xmlns="http://www.w3.org/2000/svg">
<path d="M17.533 11.332C17.2203 8.78062 15.2067 6.77202 12.6545 6.46579C12.4347 6.44071 12.2138 6.42815 11.9926 6.4281C9.73702 6.43157 7.70611 7.79469 6.84839 9.88077C5.99068 11.9669 6.47541 14.3643 8.07619 15.9533C8.92744 16.7685 9.41494 17.8919 9.42886 19.0705V19.7143H14.5717V19.0672C14.5756 17.9109 15.046 16.8052 15.8763 16.0004C17.1304 14.7905 17.7438 13.062 17.533 11.3322V11.332H17.533Z" fill="#886AFF"/>
<path d="M12.0003 24C12.545 23.9994 13.0304 23.6562 13.2126 23.1428H10.7881C10.9702 23.6562 11.4556 23.9994 12.0003 24Z" fill="#886AFF"/>
<path d="M9.85742 21.8571C9.85775 22.0937 10.0494 22.2854 10.286 22.2857H13.7146C13.9512 22.2854 14.1428 22.0937 14.1432 21.8571V20.5714H9.85742V21.8571Z" fill="#886AFF"/>
<path d="M11.9997 3.85716C12.4731 3.85716 12.8569 3.47339 12.8569 3V0.857156C12.8569 0.383766 12.4731 0 11.9997 0C11.5263 0 11.1426 0.383766 11.1426 0.857156V3C11.1426 3.47339 11.5263 3.85716 11.9997 3.85716Z" fill="#886AFF"/>
<path d="M4.7662 5.97844C5.10539 6.30239 5.6393 6.30239 5.97848 5.97844C6.13927 5.8177 6.22959 5.59964 6.22959 5.3723C6.22959 5.14495 6.13927 4.92689 5.97848 4.76616L4.46316 3.25111C4.30247 3.09033 4.08445 3 3.85716 3C3.62986 3 3.41184 3.09033 3.25111 3.25111C3.09033 3.4118 3 3.62981 3 3.85716C3 4.0845 3.09033 4.30247 3.25111 4.4632L4.7662 5.97844Z" fill="#886AFF"/>
<path d="M3.85716 12C3.85716 11.5266 3.47339 11.1428 3 11.1428H0.857156C0.383953 11.1433 0.00046875 11.5268 0 12C0.00046875 12.4732 0.383953 12.8567 0.857156 12.8571H3C3.47339 12.8571 3.85716 12.4734 3.85716 12Z" fill="#886AFF"/>
<path d="M5.59477 17.7984C5.29852 17.7192 4.98258 17.8043 4.76616 18.0215L3.25111 19.5368C3.09033 19.6975 3 19.9155 3 20.1429C3 20.3702 3.09033 20.5882 3.25111 20.7489C3.5902 21.0729 4.12406 21.0729 4.46316 20.7489L5.97844 19.2339C6.19566 19.0175 6.28078 18.7015 6.20161 18.4053C6.12244 18.109 5.89102 17.8775 5.59477 17.7984Z" fill="#886AFF"/>
<path d="M19.234 18.0215C19.0176 17.8043 18.7017 17.7192 18.4054 17.7984C18.1092 17.8775 17.8778 18.1089 17.7986 18.4052C17.7194 18.7014 17.8045 19.0174 18.0218 19.2338L19.5371 20.7488C19.8762 21.0728 20.41 21.0728 20.7491 20.7488C20.9099 20.5881 21.0002 20.3701 21.0002 20.1428C21.0002 19.9154 20.9099 19.6975 20.7491 19.5367L19.234 18.0215Z" fill="#886AFF"/>
<path d="M23.1426 11.1428H20.9997C20.5263 11.1428 20.1426 11.5266 20.1426 12C20.1426 12.4734 20.5263 12.8571 20.9997 12.8571H23.1426C23.616 12.8571 23.9997 12.4734 23.9997 12C23.9997 11.5266 23.616 11.1428 23.1426 11.1428Z" fill="#886AFF"/>
<path d="M19.2339 5.97842L20.749 4.46314C20.9655 4.24662 21.0501 3.93106 20.9708 3.63528C20.8915 3.3395 20.6605 3.1085 20.3648 3.02923C20.069 2.94997 19.7534 3.03453 19.5369 3.25104L18.0216 4.76609C17.8608 4.92683 17.7705 5.14489 17.7705 5.37223C17.7705 5.59958 17.8608 5.81764 18.0216 5.97837C18.3609 6.30237 18.8948 6.30237 19.2339 5.97842Z" fill="#886AFF"/>
</svg>
