<svg width="30" height="30" viewBox="0 0 30 30" fill="none" xmlns="http://www.w3.org/2000/svg">
<path d="M12.1483 22.9004L11.1655 22.7159L11.1655 22.7159L12.1483 22.9004ZM12.1725 22.7716L13.1553 22.9561L13.1553 22.9561L12.1725 22.7716ZM17.8281 22.7716L16.8453 22.9561L16.8453 22.9561L17.8281 22.7716ZM17.8523 22.9004L18.8351 22.7159L18.8351 22.7159L17.8523 22.9004ZM17.49 25.6899L18.393 26.1196V26.1196L17.49 25.6899ZM16.4411 25.5669C16.2038 26.0656 16.4156 26.6623 16.9143 26.8996C17.413 27.1369 18.0097 26.9251 18.247 26.4264L16.4411 25.5669ZM12.5106 25.6899L11.6076 26.1196L11.6076 26.1196L12.5106 25.6899ZM11.7536 26.4264C11.9909 26.9251 12.5876 27.1369 13.0863 26.8996C13.585 26.6623 13.7968 26.0656 13.5595 25.5669L11.7536 26.4264ZM14.2016 20.5532L13.9342 19.5896L13.9342 19.5896L14.2016 20.5532ZM15.799 20.5532L16.0663 19.5896L16.0663 19.5896L15.799 20.5532ZM13.1312 23.0849L13.1553 22.9561L11.1897 22.5871L11.1655 22.7159L13.1312 23.0849ZM16.8453 22.9561L16.8694 23.0849L18.8351 22.7159L18.8109 22.5871L16.8453 22.9561ZM16.587 25.2602L16.4411 25.5669L18.247 26.4264L18.393 26.1196L16.587 25.2602ZM11.6076 26.1196L11.7536 26.4264L13.5595 25.5669L13.4135 25.2602L11.6076 26.1196ZM16.8694 23.0849C17.0078 23.8221 16.9087 24.5843 16.587 25.2602L18.393 26.1196C18.8967 25.0611 19.0515 23.8687 18.8351 22.7159L16.8694 23.0849ZM11.1655 22.7159C10.9491 23.8687 11.1038 25.0611 11.6076 26.1196L13.4135 25.2602C13.0919 24.5843 12.9928 23.8221 13.1312 23.0849L11.1655 22.7159ZM14.469 21.5168C14.8168 21.4203 15.1838 21.4203 15.5316 21.5168L16.0663 19.5896C15.3687 19.3961 14.6319 19.3961 13.9342 19.5896L14.469 21.5168ZM18.8109 22.5871C18.5405 21.1465 17.4782 19.9814 16.0663 19.5896L15.5316 21.5168C16.2023 21.7029 16.7144 22.2591 16.8453 22.9561L18.8109 22.5871ZM13.1553 22.9561C13.2862 22.2591 13.7982 21.7029 14.469 21.5168L13.9342 19.5896C12.5224 19.9814 11.4601 21.1465 11.1897 22.5871L13.1553 22.9561Z" fill="#886AFF"/>
<path d="M25.1125 12.1488C25.1125 11.5965 24.6648 11.1488 24.1125 11.1488C23.5602 11.1488 23.1125 11.5965 23.1125 12.1488H25.1125ZM6.88749 12.1488C6.88749 11.5965 6.43977 11.1488 5.88749 11.1488C5.3352 11.1488 4.88749 11.5965 4.88749 12.1488H6.88749ZM18.1416 25.8839L17.9117 24.9107L18.1416 25.8839ZM11.8584 25.8839L12.0883 24.9107L11.8584 25.8839ZM18.5355 6.26778L17.8259 6.97238V6.97238L18.5355 6.26778ZM25.5404 14.7417C25.9295 15.1336 26.5627 15.1359 26.9546 14.7467C27.3465 14.3576 27.3487 13.7244 26.9596 13.3325L25.5404 14.7417ZM11.4645 6.26778L12.1741 6.97238L11.4645 6.26778ZM3.04039 13.3325C2.65125 13.7244 2.6535 14.3576 3.0454 14.7467C3.43731 15.1359 4.07047 15.1336 4.45961 14.7417L3.04039 13.3325ZM23.1125 12.1488V18.2967H25.1125V12.1488H23.1125ZM6.88749 18.2967V12.1488H4.88749V18.2967H6.88749ZM17.9117 24.9107C15.9965 25.3631 14.0035 25.3631 12.0883 24.9107L11.6285 26.8571C13.846 27.381 16.1539 27.381 18.3715 26.8571L17.9117 24.9107ZM12.0883 24.9107C9.0461 24.192 6.88749 21.4559 6.88749 18.2967H4.88749C4.88749 22.3743 7.67491 25.9231 11.6285 26.8571L12.0883 24.9107ZM18.3715 26.8571C22.3251 25.9231 25.1125 22.3743 25.1125 18.2967H23.1125C23.1125 21.4559 20.9539 24.192 17.9117 24.9107L18.3715 26.8571ZM17.8259 6.97238L25.5404 14.7417L26.9596 13.3325L19.2451 5.56319L17.8259 6.97238ZM10.7549 5.56319L3.04039 13.3325L4.45961 14.7417L12.1741 6.97238L10.7549 5.56319ZM19.2451 5.56319C18.4318 4.74404 17.7523 4.05667 17.1404 3.5865C16.5057 3.09883 15.8265 2.75 15 2.75V4.75C15.209 4.75 15.4642 4.8208 15.9218 5.17239C16.4021 5.54148 16.9726 6.11301 17.8259 6.97238L19.2451 5.56319ZM12.1741 6.97238C13.0274 6.11301 13.5979 5.54148 14.0782 5.17239C14.5358 4.8208 14.791 4.75 15 4.75V2.75C14.1735 2.75 13.4943 3.09883 12.8596 3.5865C12.2477 4.05667 11.5682 4.74404 10.7549 5.56319L12.1741 6.97238Z" fill="black"/>
</svg>
