<svg width="24" height="24" viewBox="0 0 24 24" fill="none" xmlns="http://www.w3.org/2000/svg">
<path d="M3.2499 6.4998C5.04477 6.4998 6.4998 5.04477 6.4998 3.2499C6.4998 1.45503 5.04477 0 3.2499 0C1.45503 0 0 1.45503 0 3.2499C0 5.04477 1.45503 6.4998 3.2499 6.4998Z" fill="#886AFF"/>
<path d="M11.9999 0C10.205 0 8.75 1.455 8.75 3.2499C8.75 5.0448 10.205 6.4998 11.9999 6.4998C13.7936 6.4998 15.2498 5.0448 15.2498 3.2499C15.2498 1.455 13.7936 0 11.9999 0Z" fill="#886AFF"/>
<path d="M20.7502 0C18.9562 0 17.5 1.455 17.5 3.2499C17.5 5.0448 18.9562 6.4998 20.7502 6.4998C22.5439 6.4998 24.0001 5.0448 24.0001 3.2499C24.0001 1.455 22.5439 0 20.7502 0Z" fill="#886AFF"/>
<path d="M3.2499 15.2499C5.04477 15.2499 6.4998 13.7949 6.4998 12C6.4998 10.2052 5.04477 8.75012 3.2499 8.75012C1.45503 8.75012 0 10.2052 0 12C0 13.7949 1.45503 15.2499 3.2499 15.2499Z" fill="#886AFF"/>
<path d="M11.9999 8.75012C10.205 8.75012 8.75 10.2051 8.75 12C8.75 13.7949 10.205 15.2499 11.9999 15.2499C13.7936 15.2499 15.2498 13.7949 15.2498 12C15.2498 10.2051 13.7936 8.75012 11.9999 8.75012Z" fill="#886AFF"/>
<path d="M20.7502 8.75012C18.9562 8.75012 17.5 10.2051 17.5 12C17.5 13.7949 18.9562 15.2499 20.7502 15.2499C22.5439 15.2499 24.0001 13.7949 24.0001 12C24.0001 10.2051 22.5439 8.75012 20.7502 8.75012Z" fill="#886AFF"/>
<path d="M11.9999 17.4999C10.205 17.4999 8.75 18.9552 8.75 20.7501C8.75 22.5447 10.205 24 11.9999 24C13.7936 24 15.2498 22.5447 15.2498 20.7501C15.2498 18.9552 13.7936 17.4999 11.9999 17.4999Z" fill="#886AFF"/>
</svg>
