<svg width="30" height="30" viewBox="0 0 30 30" fill="none" xmlns="http://www.w3.org/2000/svg">
<path d="M25.25 15.1907C25.25 14.6384 25.6977 14.1907 26.25 14.1907C26.8023 14.1907 27.25 14.6384 27.25 15.1907H25.25ZM26.25 10.2754H27.25C27.25 10.8277 26.8023 11.2754 26.25 11.2754V10.2754ZM25.25 3.75C25.25 3.19772 25.6977 2.75 26.25 2.75C26.8023 2.75 27.25 3.19772 27.25 3.75L25.25 3.75ZM20.4311 11.2754C19.8788 11.2754 19.4311 10.8277 19.4311 10.2754C19.4311 9.72313 19.8788 9.27542 20.4311 9.27542V11.2754ZM15 25.25C20.6771 25.25 25.25 20.7302 25.25 15.1907H27.25C27.25 21.8669 21.7493 27.25 15 27.25V25.25ZM4.75 15.1907C4.75 20.7302 9.3229 25.25 15 25.25V27.25C8.2507 27.25 2.75 21.8669 2.75 15.1907H4.75ZM15 5.13135C9.28825 5.13135 4.75 9.649 4.75 15.1907H2.75C2.75 8.51656 8.21175 3.13135 15 3.13135V5.13135ZM25.25 10.2754V3.75L27.25 3.75V10.2754H25.25ZM15 3.13135C19.0415 3.13135 22.0706 4.79088 24.0712 6.42982C25.0708 7.24865 25.8204 8.06728 26.3225 8.68421C26.5739 8.99319 26.7645 9.25311 26.8944 9.43931C26.9594 9.53246 27.0093 9.60732 27.0441 9.66082C27.0615 9.68758 27.0752 9.70901 27.0851 9.72474C27.09 9.7326 27.0941 9.73904 27.0971 9.74401C27.0987 9.74649 27.1 9.74861 27.1011 9.75035C27.1016 9.75122 27.1021 9.752 27.1025 9.75268C27.1027 9.75302 27.103 9.75346 27.1031 9.75363C27.1033 9.75405 27.1036 9.75445 26.25 10.2754C25.3964 10.7964 25.3966 10.7967 25.3968 10.7971C25.3969 10.7971 25.3971 10.7974 25.3972 10.7976C25.3974 10.7979 25.3975 10.7981 25.3976 10.7983C25.3977 10.7985 25.3977 10.7984 25.3974 10.7979C25.3968 10.797 25.3953 10.7946 25.3929 10.7909C25.3882 10.7833 25.3799 10.7703 25.368 10.752C25.3442 10.7155 25.3063 10.6584 25.254 10.5835C25.1495 10.4337 24.9886 10.2136 24.7713 9.9466C24.3358 9.41152 23.6792 8.69414 22.8038 7.97695C21.0544 6.54386 18.4585 5.13135 15 5.13135V3.13135ZM26.25 11.2754H20.4311V9.27542H26.25V11.2754Z" fill="black"/>
<path d="M15 5.13135C14.4477 5.13135 14 4.68364 14 4.13135C14 3.57907 14.4477 3.13135 15 3.13135V5.13135ZM26.25 10.2754H27.25C27.25 10.8277 26.8023 11.2754 26.25 11.2754V10.2754ZM25.25 3.75C25.25 3.19772 25.6977 2.75 26.25 2.75C26.8023 2.75 27.25 3.19772 27.25 3.75L25.25 3.75ZM20.4311 11.2754C19.8788 11.2754 19.4311 10.8277 19.4311 10.2754C19.4311 9.72313 19.8788 9.27542 20.4311 9.27542V11.2754ZM25.25 10.2754V3.75L27.25 3.75V10.2754H25.25ZM15 3.13135C19.0415 3.13135 22.0706 4.79088 24.0712 6.42982C25.0708 7.24865 25.8204 8.06728 26.3225 8.68421C26.5739 8.99319 26.7645 9.25311 26.8944 9.43931C26.9594 9.53246 27.0093 9.60732 27.0441 9.66082C27.0615 9.68758 27.0752 9.70901 27.0851 9.72474C27.09 9.7326 27.0941 9.73904 27.0971 9.74401C27.0987 9.74649 27.1 9.74861 27.1011 9.75035C27.1016 9.75122 27.1021 9.752 27.1025 9.75268C27.1027 9.75302 27.103 9.75346 27.1031 9.75363C27.1033 9.75405 27.1036 9.75445 26.25 10.2754C25.3964 10.7964 25.3966 10.7967 25.3968 10.7971C25.3969 10.7971 25.3971 10.7974 25.3972 10.7976C25.3974 10.7979 25.3975 10.7981 25.3976 10.7983C25.3977 10.7985 25.3977 10.7984 25.3974 10.7979C25.3968 10.797 25.3953 10.7946 25.3929 10.7909C25.3882 10.7833 25.3799 10.7703 25.368 10.752C25.3442 10.7155 25.3063 10.6584 25.254 10.5835C25.1495 10.4337 24.9886 10.2136 24.7713 9.94661C24.3358 9.41152 23.6792 8.69414 22.8038 7.97695C21.0544 6.54386 18.4585 5.13135 15 5.13135V3.13135ZM26.25 11.2754H20.4311V9.27542H26.25V11.2754Z" fill="#886AFF"/>
</svg>
