<svg width="18" height="18" viewBox="0 0 18 18" fill="none" xmlns="http://www.w3.org/2000/svg">
<path d="M5.95043 17.6471C3.17301 16.9956 1.00437 14.827 0.352876 12.0496C-0.117627 10.0437 -0.117627 7.95626 0.352876 5.95043C1.00437 3.17301 3.17301 1.00437 5.95043 0.352878C7.95625 -0.117623 10.0437 -0.117624 12.0496 0.352877C14.827 1.00437 16.9956 3.17301 17.6471 5.95043C18.1176 7.95625 18.1176 10.0437 17.6471 12.0496C16.9956 14.827 14.827 16.9956 12.0496 17.6471C10.0437 18.1176 7.95626 18.1176 5.95043 17.6471Z" fill="#04B155"/>
<path d="M6.53033 8.41411C6.23744 8.12122 5.76256 8.12122 5.46967 8.41411C5.17678 8.70701 5.17678 9.18188 5.46967 9.47477L6.53033 8.41411ZM8.22222 11.1667L7.69189 11.697C7.83571 11.8408 8.03178 11.9201 8.23515 11.9166C8.43851 11.913 8.63173 11.8271 8.77051 11.6784L8.22222 11.1667ZM12.6594 7.51174C12.942 7.20893 12.9257 6.73433 12.6228 6.45171C12.32 6.16908 11.8454 6.18545 11.5628 6.48826L12.6594 7.51174ZM5.46967 9.47477L7.69189 11.697L8.75255 10.6363L6.53033 8.41411L5.46967 9.47477ZM8.77051 11.6784L12.6594 7.51174L11.5628 6.48826L7.67393 10.6549L8.77051 11.6784Z" fill="#F9F9F9"/>
</svg>
