<svg width="100" height="100" viewBox="0 0 100 100" fill="none" xmlns="http://www.w3.org/2000/svg">
<g clip-path="url(#clip0_1038_17934)">
<path d="M82.7664 93.5C83.4998 95.05 85.2664 96.8333 85.7331 98.3333H43.7164C43.7164 98.3333 41.2164 88.0833 35.5164 85.5C30.7655 87.221 25.9252 88.6843 21.0164 89.8833C18.63 90.3958 16.2682 88.9197 15.6831 86.55C14.2498 82.45 16.2164 81.3333 15.5998 78.8833C15.1664 77.2167 13.5498 76.7667 12.2664 75.8667C10.9831 74.9667 13.0831 72.8 13.0831 72.8C13.0831 72.8 11.1331 71.35 10.4164 70.7167C9.69978 70.0833 10.7164 69.05 11.6331 67.1167C12.011 66.2758 12.1216 65.3391 11.9498 64.4333C11.6164 62.6333 8.89978 61.9667 7.56644 60.9667C5.49978 59.4167 4.88311 58.75 7.71644 55.2667C10.6134 51.5188 13.0947 47.4672 15.1164 43.1833C15.4094 42.7273 15.5868 42.2067 15.6331 41.6667C15.6331 39.2833 12.1498 38.3333 11.8331 35.9833C11.5831 34.1833 13.8998 30.9 14.6498 27.65C15.0716 25.6753 15.6285 23.7318 16.3164 21.8333C17.6623 18.0283 19.7658 14.5357 22.4998 11.5667C26.5831 7.23334 32.2331 5.36667 37.9664 4.03334C58.9831 -0.799998 69.4998 1.85 81.4498 11.25C85.9631 14.6021 89.2579 19.3366 90.8331 24.7333C92.0299 29.1649 92.5911 33.744 92.4998 38.3333C92.3164 50.5667 84.5331 54.85 81.0664 62.7667C78.9369 67.6609 78.1433 73.0324 78.7664 78.3333C79.2418 83.5771 80.5939 88.7039 82.7664 93.5Z" fill="#FFD48F"/>
<path d="M78.7667 78.3333C78.1525 73.0488 78.9459 67.6958 81.0667 62.8167C84.5333 55 92.3167 50.6333 92.5 38.3333C92.5976 33.7217 92.0364 29.1197 90.8333 24.6667C89.2625 19.2722 85.9737 14.538 81.4667 11.1833C72.8167 4.38334 64.9 1.18334 53.25 1.68334C62.2833 2.18334 69.1167 5.4 76.4667 11.1833C80.9856 14.5552 84.2756 19.3145 85.8333 24.7333C87.0301 29.1649 87.5913 33.744 87.5 38.3333C87.3167 50.5667 79.5333 54.85 76.0667 62.7667C73.9371 67.6609 73.1435 73.0324 73.7667 78.3333C74.2438 83.5714 75.5959 88.6924 77.7667 93.4833C78.5 95.0333 80.2667 96.8167 80.7333 98.3167H85.7333C85.2667 96.75 83.5 94.9833 82.7667 93.4833C80.5959 88.6924 79.2438 83.5714 78.7667 78.3333Z" fill="#DDC298"/>
<path d="M65.8333 54.7167C65.7868 57.4446 67.8501 59.7476 70.5667 60C71.9383 60.0733 73.2797 59.579 74.2759 58.6333C75.2721 57.6875 75.8353 56.3736 75.8333 55V50.25C75.7609 46.002 77.0133 41.8369 79.4167 38.3333C81.3773 35.6752 82.4556 32.4694 82.5 29.1667C82.5 17.6667 69.0667 8.33334 52.5 8.33334C35.9333 8.33334 22.5 17.6667 22.5 29.1667C22.5 40.6667 35.9333 50 52.5 50H62.5C64.341 50 65.8333 51.4924 65.8333 53.3333V54.7167Z" fill="#D8D1FF"/>
<path d="M52.5 8.33334C51.65 8.33334 50.8333 8.33334 50 8.33334C65.4 9.30001 77.5 18.3333 77.5 29.1667C77.4556 32.4694 76.3773 35.6752 74.4167 38.3333C72.0133 41.8369 70.7609 46.002 70.8333 50.25V55C70.833 56.7654 69.9018 58.3997 68.3833 59.3C69.0455 59.7027 69.7938 59.9426 70.5667 60C71.9383 60.0733 73.2797 59.579 74.2759 58.6333C75.2721 57.6875 75.8353 56.3736 75.8333 55V50.25C75.7609 46.002 77.0133 41.8369 79.4167 38.3333C81.3773 35.6752 82.4557 32.4694 82.5 29.1667C82.5 17.6667 69.0667 8.33334 52.5 8.33334Z" fill="#CED7DB"/>
<path d="M6.45003 54.2167C4.91669 56.1167 4.00003 57.55 4.18336 59.1333C4.51942 60.4811 5.40095 61.6283 6.61669 62.3C7.13947 62.6899 7.69744 63.0303 8.28336 63.3167C9.00003 63.6833 10.2 64.3 10.2834 64.7333C10.3819 65.295 10.3183 65.8732 10.1 66.4C9.85003 66.9167 9.58336 67.3667 9.36669 67.7667C8.71669 68.9167 7.70003 70.65 9.36669 71.95C9.71669 72.2667 10.3334 72.75 10.9 73.1833C10.4874 73.9185 10.3018 74.7595 10.3667 75.6C10.446 76.269 10.8029 76.8737 11.35 77.2667C11.7195 77.5271 12.1034 77.7664 12.5 77.9834C13.4834 78.55 13.8667 78.8 14 79.3167C14.1057 79.9374 14.0483 80.5749 13.8334 81.1667C13.3095 83.1295 13.4262 85.2083 14.1667 87.1C15.0241 90.2661 18.21 92.207 21.4167 91.5167C26.1667 90.3639 30.8513 88.9563 35.45 87.3C39.1834 89.5167 41.5334 96.2167 42.1167 98.7334C42.3047 99.4953 42.9989 100.023 43.7834 100H85.8334C86.359 99.9963 86.852 99.7449 87.1637 99.3217C87.4754 98.8985 87.5691 98.353 87.4167 97.85C86.9819 96.6439 86.3512 95.5177 85.55 94.5167C85.0919 93.9456 84.6901 93.3317 84.35 92.6833C82.2659 88.0591 80.9702 83.1186 80.5167 78.0667C79.9274 73.0776 80.6751 68.0216 82.6834 63.4167C83.8901 60.9349 85.3656 58.5932 87.0834 56.4333C90.4167 51.9833 94.1167 46.9333 94.25 38.35C94.373 33.5725 93.8118 28.8019 92.5834 24.1833C90.8375 18.493 87.3009 13.5184 82.5 10C69.3667 -0.333321 58.05 -2.21665 37.6667 2.48335C32.1334 3.75001 25.8667 5.70001 21.35 10.4833C18.4073 13.6237 16.1385 17.3331 14.6834 21.3833C14.061 23.1655 13.5544 24.9859 13.1667 26.8333L13.0334 27.4167C12.6697 28.7604 12.1786 30.0663 11.5667 31.3167C10.6737 32.8318 10.2018 34.558 10.2 36.3167C10.5414 37.7888 11.3913 39.0931 12.6 40C13.4167 40.75 13.95 41.2667 13.9667 41.75C13.9011 42.0019 13.8001 42.2432 13.6667 42.4667C11.6888 46.6305 9.26939 50.5697 6.45003 54.2167ZM14.7834 37.55C14.1167 36.9333 13.4834 36.35 13.4167 35.8833C13.6136 34.771 13.9848 33.6966 14.5167 32.7C15.2187 31.2526 15.7769 29.7398 16.1834 28.1833L16.3167 27.6C16.6715 25.9057 17.1335 24.2357 17.7 22.6C19.0114 18.9761 21.0408 15.6542 23.6667 12.8333C27.5667 8.71668 33.0167 7.01668 38.3167 5.80001C55.45 1.66668 66.6334 1.66668 80.4167 12.5667C84.6407 15.6963 87.7159 20.1304 89.1667 25.1833C90.3409 29.4659 90.902 33.8933 90.8334 38.3333C90.7167 45.85 87.6167 50 84.3334 54.4833C82.4505 56.8413 80.8455 59.4082 79.55 62.1333C77.2957 67.2748 76.4557 72.9251 77.1167 78.5C77.6131 83.9178 79.0159 89.2137 81.2667 94.1667C81.6912 94.9957 82.1935 95.7826 82.7667 96.5167V96.6167H44.9667C43.8805 92.6818 41.895 89.0531 39.1667 86.0167L40.4334 85.5667L43.0667 84.6667C50.1834 82.4167 53.75 79.1667 53.6667 75.0167C53.6667 74.0962 52.9205 73.35 52 73.35C51.0796 73.35 50.3334 74.0962 50.3334 75.0167C50.3334 76.6833 48.9667 79.25 42 81.4167C41.5167 81.5667 40.55 81.9167 39.2834 82.3667L34.9834 83.85C30.3013 85.6021 25.5276 87.0988 20.6834 88.3334C19.1262 88.6251 17.6146 87.6418 17.25 86.1C16.7359 84.7966 16.6772 83.3577 17.0834 82.0167C17.433 80.8931 17.479 79.6971 17.2167 78.55C16.7772 76.9727 15.6598 75.6721 14.1667 75L13.8 74.7833C13.9803 74.4173 14.1981 74.071 14.45 73.75C14.9912 73.0324 14.8659 72.0148 14.1667 71.45C13.7667 71.15 12.8167 70.45 12.1334 69.9C12.2179 69.7333 12.3125 69.5719 12.4167 69.4167C12.6667 68.9667 12.95 68.4333 13.2334 67.85C13.7761 66.685 13.9337 65.3773 13.6834 64.1167C13.3 62.0667 11.35 61.0833 9.93336 60.35C9.49429 60.1422 9.07095 59.9027 8.66669 59.6333C8.25022 59.3709 7.85958 59.0696 7.50003 58.7333C7.50003 58.65 7.50003 58.1167 9.05003 56.3167C12.0172 52.4746 14.5598 48.3227 16.6334 43.9333C17.0358 43.249 17.2647 42.4765 17.3 41.6833C17.1247 40.0009 16.2316 38.476 14.85 37.5L14.7834 37.55Z" fill="black"/>
<path d="M52.4997 51.6667H62.4997C63.4202 51.6667 64.1663 52.4129 64.1663 53.3334V54.7167C64.0856 58.3457 66.8629 61.4013 70.483 61.6667H70.833C74.5149 61.6667 77.4997 58.6819 77.4997 55V50.25C77.4459 46.3527 78.6114 42.5359 80.833 39.3334C82.9894 36.3813 84.1563 32.8225 84.1663 29.1667C84.1663 16.7667 69.9663 6.66669 52.4997 6.66669C35.033 6.66669 20.833 16.7667 20.833 29.1667C20.833 41.5667 35.033 51.6667 52.4997 51.6667ZM52.4997 10C68.1163 10 80.833 18.6 80.833 29.1667C80.8022 32.1369 79.8274 35.0203 78.0497 37.4C75.4502 41.1752 74.0927 45.667 74.1663 50.25V55C74.1674 55.9131 73.7939 56.7867 73.133 57.4167C72.4591 58.0387 71.5661 58.3683 70.6497 58.3334C68.8209 58.1266 67.4535 56.5565 67.4997 54.7167V53.3334C67.4997 50.5719 65.2611 48.3334 62.4997 48.3334H52.4997C36.883 48.3334 24.1663 39.7334 24.1663 29.1667C24.1663 18.6 36.883 10 52.4997 10Z" fill="black"/>
<path d="M34.6502 34.5167C34.9632 34.8322 35.3892 35.0097 35.8336 35.0097C36.278 35.0097 36.7039 34.8322 37.0169 34.5167L39.1669 32.35L41.3169 34.5167C41.6298 34.8322 42.0558 35.0097 42.5002 35.0097C42.9446 35.0097 43.3706 34.8322 43.6836 34.5167C43.9991 34.2037 44.1766 33.7777 44.1766 33.3333C44.1766 32.889 43.9991 32.463 43.6836 32.15L41.5169 30L43.6836 27.85C44.3371 27.1965 44.3371 26.1369 43.6836 25.4833C43.03 24.8298 41.9704 24.8298 41.3169 25.4833L39.1669 27.65L37.0169 25.4833C36.3634 24.8298 35.3038 24.8298 34.6502 25.4833C33.9967 26.1369 33.9967 27.1965 34.6502 27.85L36.8169 30L34.6502 32.15C34.3347 32.463 34.1572 32.889 34.1572 33.3333C34.1572 33.7777 34.3347 34.2037 34.6502 34.5167Z" fill="black"/>
<path d="M49.1667 35H55.8333C56.7538 35 57.5 34.2538 57.5 33.3334C57.5 32.4129 56.7538 31.6667 55.8333 31.6667H49.1667C48.2462 31.6667 47.5 32.4129 47.5 33.3334C47.5 34.2538 48.2462 35 49.1667 35Z" fill="black"/>
<path d="M49.1667 28.3333H55.8333C56.7538 28.3333 57.5 27.5871 57.5 26.6667C57.5 25.7462 56.7538 25 55.8333 25H49.1667C48.2462 25 47.5 25.7462 47.5 26.6667C47.5 27.5871 48.2462 28.3333 49.1667 28.3333Z" fill="black"/>
<path d="M62.5273 26.8633C62.5534 25.6328 62.9831 24.6465 63.8164 23.9043C64.6497 23.1556 65.8021 22.7812 67.2734 22.7812C68.6602 22.7812 69.7799 23.1328 70.6328 23.8359C71.4857 24.5326 71.9121 25.4408 71.9121 26.5605C71.9121 27.2832 71.7396 27.9147 71.3945 28.4551C71.0495 28.9889 70.5254 29.4609 69.8223 29.8711C69.1712 30.2487 68.7318 30.5872 68.5039 30.8867C68.276 31.1862 68.1621 31.5768 68.1621 32.0586V32.5762H65.5742L65.5547 32.0098C65.4896 31.2546 65.5938 30.6328 65.8672 30.1445C66.1471 29.6562 66.6289 29.2103 67.3125 28.8066C67.944 28.429 68.3737 28.0905 68.6016 27.791C68.8359 27.4915 68.9531 27.1107 68.9531 26.6484C68.9531 26.1797 68.7806 25.7956 68.4355 25.4961C68.097 25.1966 67.651 25.0469 67.0977 25.0469C66.5378 25.0469 66.0853 25.2129 65.7402 25.5449C65.3952 25.8704 65.2064 26.3099 65.1738 26.8633H62.5273ZM68.0352 36.8047C67.7227 37.0977 67.3451 37.2441 66.9023 37.2441C66.4596 37.2441 66.082 37.0977 65.7695 36.8047C65.4635 36.5052 65.3105 36.1406 65.3105 35.7109C65.3105 35.2812 65.4635 34.9199 65.7695 34.627C66.082 34.3275 66.4596 34.1777 66.9023 34.1777C67.3451 34.1777 67.7227 34.3275 68.0352 34.627C68.3477 34.9199 68.5039 35.2812 68.5039 35.7109C68.5039 36.1406 68.3477 36.5052 68.0352 36.8047Z" fill="black"/>
</g>
<defs>
<clipPath id="clip0_1038_17934">
<rect width="100" height="100" fill="white"/>
</clipPath>
</defs>
</svg>
