<svg width="26" height="23" viewBox="0 0 26 23" fill="none" xmlns="http://www.w3.org/2000/svg">
<path d="M2.31186 10.9889L2.91017 10.5366L2.31186 10.9889ZM9.1573 20.0453L9.75561 19.593L9.1573 20.0453ZM16.8427 20.0453L16.2444 19.593H16.2444L16.8427 20.0453ZM23.6881 10.9889L23.0898 10.5366V10.5366L23.6881 10.9889ZM23.6881 3.07252L23.0898 3.52476V3.52476L23.6881 3.07252ZM13 4.34498L12.3582 4.73306C12.4941 4.95771 12.7375 5.09498 13 5.09498C13.2625 5.09498 13.5059 4.95771 13.6418 4.73306L13 4.34498ZM2.31186 3.07252L2.91017 3.52476L2.31186 3.07252ZM1.71355 11.4411L8.55899 20.4975L9.75561 19.593L2.91017 10.5366L1.71355 11.4411ZM8.55899 20.4975C10.8291 23.5008 15.1709 23.5008 17.441 20.4975L16.2444 19.593C14.5744 21.8023 11.4256 21.8023 9.75561 19.593L8.55899 20.4975ZM17.441 20.4975L24.2864 11.4411L23.0898 10.5366L16.2444 19.593L17.441 20.4975ZM24.2864 11.4411C26.2379 8.85946 26.2379 5.20194 24.2864 2.62027L23.0898 3.52476C24.6367 5.57128 24.6367 8.49012 23.0898 10.5366L24.2864 11.4411ZM24.2864 2.62027C22.8004 0.654284 20.3779 0.0140786 18.1105 0.325189C15.8463 0.635863 13.5976 1.90723 12.3582 3.95689L13.6418 4.73306C14.6119 3.12884 16.427 2.07023 18.3144 1.81126C20.1986 1.55274 22.0153 2.10324 23.0898 3.52476L24.2864 2.62027ZM13.6418 3.95689C12.4024 1.90723 10.1537 0.635863 7.88952 0.325189C5.62212 0.0140786 3.19958 0.654284 1.71355 2.62027L2.91017 3.52476C3.98466 2.10324 5.80144 1.55274 7.68562 1.81126C9.57297 2.07023 11.3882 3.12884 12.3582 4.73306L13.6418 3.95689ZM1.71355 2.62027C-0.237848 5.20194 -0.237853 8.85945 1.71355 11.4411L2.91017 10.5366C1.36327 8.49012 1.36328 5.57128 2.91017 3.52476L1.71355 2.62027Z" fill="white"/>
</svg>
