<svg width="18" height="18" viewBox="0 0 18 18" fill="none" xmlns="http://www.w3.org/2000/svg">
<path d="M12.0496 0.352877C14.827 1.00437 16.9956 3.17301 17.6471 5.95043C18.1176 7.95626 18.1176 10.0437 17.6471 12.0496C16.9956 14.827 14.827 16.9956 12.0496 17.6471C10.0437 18.1176 7.95626 18.1176 5.95044 17.6471C3.17301 16.9956 1.00437 14.827 0.352876 12.0496C-0.117625 10.0437 -0.117625 7.95626 0.352875 5.95044C1.00437 3.17301 3.173 1.00437 5.95043 0.352878C7.95625 -0.117626 10.0437 -0.117626 12.0496 0.352877Z" fill="#DD3333"/>
<path d="M11.5303 7.53033C11.8232 7.23744 11.8232 6.76256 11.5303 6.46967C11.2374 6.17678 10.7626 6.17678 10.4697 6.46967L11.5303 7.53033ZM6.46967 10.4697C6.17678 10.7626 6.17678 11.2374 6.46967 11.5303C6.76256 11.8232 7.23744 11.8232 7.53033 11.5303L6.46967 10.4697ZM10.4697 11.5303C10.7626 11.8232 11.2374 11.8232 11.5303 11.5303C11.8232 11.2374 11.8232 10.7626 11.5303 10.4697L10.4697 11.5303ZM7.53033 6.46967C7.23744 6.17678 6.76256 6.17678 6.46967 6.46967C6.17678 6.76256 6.17678 7.23744 6.46967 7.53033L7.53033 6.46967ZM10.4697 6.46967L6.46967 10.4697L7.53033 11.5303L11.5303 7.53033L10.4697 6.46967ZM11.5303 10.4697L7.53033 6.46967L6.46967 7.53033L10.4697 11.5303L11.5303 10.4697Z" fill="white"/>
</svg>
